Coordinates
version=1
nRows=19
nColumns=36
inDegrees=yes

Units are S.I. units (second, meters, Newtons, ...)
If the header above contains a line with 'inDegrees', this indicates whether rotational values are in degrees (yes) or radians (no).

endheader
time	pelvis_tilt	pelvis_list	pelvis_rotation	pelvis_tx	pelvis_ty	pelvis_tz	hip_flexion_r	hip_adduction_r	hip_rotation_r	knee_angle_r	knee_angle_r_beta	ankle_angle_r	subtalar_angle_r	mtp_angle_r	hip_flexion_l	hip_adduction_l	hip_rotation_l	knee_angle_l	knee_angle_l_beta	ankle_angle_l	subtalar_angle_l	mtp_angle_l	lumbar_extension	lumbar_bending	lumbar_rotation	arm_flex_r	arm_add_r	arm_rot_r	elbow_flex_r	pro_sup_r	arm_flex_l	arm_add_l	arm_rot_l	elbow_flex_l	pro_sup_l
      1.22916670	    -14.21501505	     -0.63247026	     -0.71629633	     -0.46913071	      1.27531928	     -0.06294086	      2.38489005	     -1.26563329	     -9.08892525	     20.36579767	      0.35545022	    -45.06105119	     -4.67982794	     -7.49999987	      5.54228188	     -0.85697908	      4.10434776	     26.99005259	      0.47106528	    -39.22589695	     -5.29283617	     -7.49999987	      3.85513368	      2.41516149	     -1.77545232	     15.56248310	    -40.67166678	      2.22197329	    106.92029769	     82.17376155	      2.46627948	    -45.24771244	     -8.06743155	    122.06430537	     70.01986991
      1.23333330	    -14.13595873	     -0.76127066	     -1.03800230	     -0.46520961	      1.28346389	     -0.06049716	      2.43914881	     -0.86661295	     -8.40416637	     19.42441396	      0.33901998	    -46.63420828	     -3.54989384	     -7.49999987	      5.39766890	     -0.89956737	      4.82768237	     26.46968839	      0.46198321	    -40.05055344	     -3.47353129	     -7.49999987	      3.73831327	      2.64730662	     -3.44916175	     17.73423327	    -39.71803885	      5.50004374	    105.50628614	     81.75885331	     -3.27679239	    -44.49411890	    -13.18205969	    123.97377787	     69.84796703
      1.23750000	    -14.00734986	     -0.73302378	     -1.29293844	     -0.45808942	      1.28493386	     -0.06093640	      2.44501120	     -0.82399630	     -8.00238822	     19.15322921	      0.33428691	    -48.31657491	     -2.48472769	     -7.49999987	      5.28529273	     -0.65954993	      5.65997719	     26.13080510	      0.45606859	    -40.68525843	     -2.34996658	     -7.49999987	      3.82596321	      2.66057415	     -3.22697197	     16.93909022	    -39.72372030	      5.47680369	    105.29190975	     81.73969555	     -4.19633064	    -43.96893984	    -13.04330757	    123.93898140	     69.85275166
      1.24166670	    -13.91137054	     -0.73824011	     -1.41963707	     -0.45043877	      1.28912092	     -0.05967275	      2.35316176	     -0.76087042	     -8.28110942	     18.92115283	      0.33023642	    -49.16132838	     -1.40565760	     -7.49999987	      5.10753578	     -0.65295117	      5.83256543	     25.98579902	      0.45353775	    -41.99508523	     -1.73997321	     -7.49999987	      3.88871937	      2.56785733	     -3.16388619	     15.31404016	    -39.17940483	      4.35481562	    105.37092622	     81.58802887	     -5.89372170	    -43.24589426	    -13.98300160	    124.37823790	     69.85741996
      1.24583330	    -13.80374238	     -0.77733601	     -1.50096370	     -0.44341800	      1.29437149	     -0.05773079	      2.26879632	     -0.44831989	     -8.16172837	     18.94181316	      0.33059701	    -49.43894261	     -0.20705201	     -7.49999987	      4.87768691	     -0.69161934	      6.15553425	     25.56843118	      0.44625331	    -43.41882056	     -0.62671929	     -7.49999987	      4.10331997	      2.55409629	     -3.06156746	     14.23220480	    -39.05457636	      4.39019642	    105.17215709	     81.56534959	     -6.93646619	    -42.69764473	    -13.86608673	    124.36563266	     69.86659976
      1.25000000	    -13.60137018	     -0.90476583	     -1.41501855	     -0.44037987	      1.30152082	     -0.05601588	      2.43754715	      0.03721005	     -7.82381215	     18.97525834	      0.33118073	    -49.52687192	      1.07506294	     -7.49999987	      4.86326887	     -0.97123949	      6.50252826	     25.14006779	      0.43877696	    -45.09110248	      0.46065350	     -7.49999987	      4.01354966	      2.61896857	     -3.15729596	     13.03417105	    -38.59463642	      4.11259395	    104.98552085	     81.51392069	     -7.99464501	    -42.04270909	    -13.90864256	    124.26587103	     69.86919434
      1.25416670	    -13.56384100	     -0.96907195	     -1.21277205	     -0.43365948	      1.30020510	     -0.05637335	      2.70325343	      0.36414906	     -7.29921509	     19.33971528	      0.33754171	    -49.56768477	      2.41851065	     -7.49999987	      4.98041276	     -1.03898753	      6.50244263	     25.18195017	      0.43950794	    -46.16247166	      0.81521646	     -7.49999987	      3.87621179	      2.54245905	     -3.33479269	     11.28106217	    -37.68732668	      2.42469044	    105.50758016	     81.33897565	     -9.47312586	    -41.30105527	    -14.91651901	    124.89387406	     69.95170955
      1.25833330	    -13.44569076	     -0.97969605	     -1.52039510	     -0.42701709	      1.30587342	     -0.05701185	      2.77973453	      0.62268064	     -6.86904088	     19.54800980	      0.34117713	    -49.62941473	      3.76636913	     -7.49999987	      4.78736300	     -0.93649686	      7.00570454	     25.04415922	      0.43710304	    -46.69081332	      2.23479535	     -7.49999987	      3.94207538	      2.60075582	     -3.07202815	     10.51274679	    -37.50220883	      2.31242640	    105.38878022	     81.31131431	    -10.41445780	    -40.61963815	    -14.77940198	    124.78518108	     69.98432684
      1.26250000	    -13.44225508	     -1.18920292	     -1.54209116	     -0.42354931	      1.31260354	     -0.05664908	      3.21415834	      1.09791135	     -6.27534531	     19.50168114	      0.34036855	    -49.65727973	      4.93452503	     -7.49999987	      5.18960297	     -1.02968548	      7.47888740	     24.81523438	      0.43310754	    -46.82030520	      4.37047918	     -7.49999987	      3.69848235	      2.92440498	     -3.02309361	      9.55389641	    -37.13307567	      1.54771984	    105.78692847	     81.21203277	    -11.26320464	    -39.89283956	    -15.06556873	    125.04926821	     70.09836433
      1.26666670	    -13.40478648	     -0.97554085	     -1.41133425	     -0.41581843	      1.31602995	     -0.05648964	      3.12309337	      1.06886901	     -5.83366060	     18.91479228	      0.33012540	    -49.67128958	      6.33498627	     -7.49999987	      5.21172357	     -0.75286005	      7.46800429	     24.50071176	      0.42761809	    -47.14720715	      5.28592830	     -7.49999987	      3.66415277	      2.71036000	     -3.07783755	      8.95248108	    -36.83314962	      1.44213366	    105.64604994	     81.18496114	    -11.79217025	    -39.57408346	    -14.85687678	    124.83906282	     70.12946425
      1.27083330	    -13.26658592	     -0.91711207	     -1.32134339	     -0.40882097	      1.31939727	     -0.05766037	      3.00587460	      1.24409915	     -5.59151859	     18.43680633	      0.32178297	    -49.64026625	      7.24014187	     -7.49999987	      5.09398535	     -0.69521045	      7.20138741	     24.40896744	      0.42601685	    -46.69486099	      5.66506598	     -7.49999987	      3.57507381	      2.77010960	     -3.12221278	      8.28042271	    -36.56607681	      1.18403344	    105.44491663	     81.15108148	    -12.29114999	    -38.95603844	    -14.57183900	    124.55584111	     70.16093599
      1.27500000	    -12.99612948	     -0.97210820	     -1.31487278	     -0.40261471	      1.31837797	     -0.05785986	      2.79714192	      1.38473725	     -5.77227443	     18.24874295	      0.31850065	    -49.57658835	      7.51334473	     -7.49999987	      4.89924953	     -0.71100548	      6.95701971	     24.49889773	      0.42758643	    -46.53385206	      6.10055217	     -7.49999987	      3.53554517	      2.86954394	     -3.05621479	      7.56978036	    -36.39209237	      0.95185659	    105.06157192	     81.11434606	    -12.79179596	    -38.20433527	    -14.17247866	    124.16011101	     70.19797762
      1.27916670	    -12.83516257	     -0.85384664	     -1.43959910	     -0.39614232	      1.31830382	     -0.05719976	      2.76946302	      1.33091192	     -5.61930346	     18.46126357	      0.32220983	    -49.53517050	      7.72877919	     -7.49999987	      5.04969327	     -0.61661591	      6.69297602	     24.94591752	      0.43538840	    -45.69453828	      6.36851994	     -7.49999987	      3.37491663	      2.74012731	     -0.97021471	      3.12435569	    -36.15054523	     -3.39665587	    106.71403472	     80.72794891	    -10.09221219	    -37.99439296	    -10.50022525	    122.75938215	     71.34334300
      1.28333330	    -12.68670844	     -0.79587507	     -1.54669646	     -0.38975483	      1.32012130	     -0.05628754	      2.72733015	      1.36692954	     -5.71511370	     18.40829302	      0.32128532	    -49.50965843	      7.71699368	     -7.49999987	      5.01506888	     -0.65146686	      6.44197120	     25.11164766	      0.43828093	    -45.10843101	      6.37088319	     -7.49999987	      3.44483378	      2.70625248	     -0.85198504	      2.52468098	    -36.03395903	     -3.39060178	    106.40314884	     80.72614034	    -10.79670087	    -37.42248284	    -10.10574579	    122.55022830	     71.35227067
      1.28750000	    -12.78913341	     -0.97900196	     -1.52722931	     -0.38411981	      1.32109776	     -0.05745485	      3.07761474	      1.62239972	     -5.37641509	     18.39558919	      0.32106360	    -49.40542889	      7.86766200	     -7.49999987	      5.32505150	     -0.97624688	      5.76211349	     25.31044126	      0.44175054	    -44.30997147	      6.29046244	     -7.49999987	      3.83354709	      2.94950197	     -0.84100859	      1.47798547	    -35.80693324	     -3.92523463	    106.14680109	     80.67234850	    -11.44026946	    -36.76065510	     -9.82007052	    122.31496807	     71.37112912
      1.29166670	    -12.69253700	     -1.03257511	     -1.34879621	     -0.37589824	      1.32840453	     -0.05789052	      2.91865803	      1.77409336	     -5.26781792	     17.81906085	      0.31100128	    -49.31765542	      8.14424516	     -7.49999987	      5.43167214	     -1.14351036	      5.10374147	     24.94848736	      0.43543325	    -44.14921809	      5.44362889	     -7.49999987	      3.91844247	      3.01920025	     -1.07696532	      0.46183718	    -35.50845122	     -3.93206795	    106.02490561	     80.64838750	    -12.19355174	    -36.18928956	     -9.45092851	    122.05934068	     71.37319835
      1.29583330	    -12.62428831	     -1.19119518	     -1.22341281	     -0.36974206	      1.32740213	     -0.05640294	      2.99131874	      2.20548399	     -5.25388501	     17.59451620	      0.30708224	    -49.12497733	      8.31159223	     -7.49999987	      5.28648265	     -1.54909504	      4.28867142	     24.74372127	      0.43185941	    -44.36984010	      4.10420345	     -7.49999987	      3.97051390	      3.21142209	      0.29417340	     -3.45488188	    -34.94850885	     -7.69751486	    107.19460094	     80.10952245	    -10.58767729	    -35.84384199	     -7.01026096	    120.85683931	     71.52018138
      1.30000000	    -12.37693971	     -1.40680645	     -1.29869220	     -0.36305911	      1.32878680	     -0.05675890	      3.00402147	      2.46373507	     -5.57312945	     17.57969897	      0.30682363	    -48.70337645	      8.14690900	     -7.49999987	      5.08544712	     -1.98997603	      3.64536150	     24.60039302	      0.42935786	    -44.00919577	      3.65219066	     -7.49999987	      3.85278877	      3.52067944	      0.21692110	     -4.32103387	    -34.66576251	     -7.69848199	    106.79418363	     80.09454317	    -11.46092899	    -35.15056882	     -6.75667097	    120.52730602	     71.50963317
      1.30416670	    -12.17383660	     -1.40625862	     -1.59316509	     -0.35769582	      1.33063084	     -0.05613069	      3.06641077	      2.22180701	     -5.97020994	     17.60597452	      0.30728222	    -48.76674303	      7.93890111	     -7.49999987	      5.06486526	     -2.03924085	      3.13548366	     24.63122014	      0.42989589	    -44.51392485	      3.89897344	     -7.49999987	      3.61011909	      3.52519426	      0.28728171	     -4.91754048	    -34.27754008	     -7.66344740	    106.44172966	     80.07505657	    -12.11477113	    -34.44160937	     -6.54167107	    120.27427648	     71.50200459
